<svg width="148" height="32" viewBox="0 0 148 32" fill="none" xmlns="http://www.w3.org/2000/svg">
<g clip-path="url(#clip0_17156_757)">
<path d="M4.98949 1.3683L12.9975 14.2397L21.0056 1.3683H26.0367L15.1356 18.7265V30.6745H10.8594V18.7265L0 1.3683H4.98949Z" fill="white"/>
<path d="M59.1164 8.41199C57.1461 6.44168 54.4208 5.22504 51.5278 5.22504C48.6347 5.22504 45.9517 6.44168 44.023 8.41199C42.0943 10.34 40.8783 13.023 40.8783 16C40.8783 18.9769 42.0943 21.6605 44.023 23.5879C45.9517 25.5589 48.6347 26.7749 51.5278 26.7749C54.4208 26.7749 57.1461 25.5589 59.1164 23.5879C61.0028 21.6605 62.2188 19.0198 62.2188 16C62.2188 12.9821 61.0028 10.34 59.1164 8.41199ZM40.9622 5.39217C43.6452 2.66818 47.4187 0.948242 51.5278 0.948242C55.6784 0.948242 59.4096 2.66818 62.1349 5.39217C64.7763 8.11871 66.4956 11.8493 66.4956 16C66.4956 20.1506 64.7763 23.8818 62.1349 26.6077C59.4096 29.3746 55.6784 31.0517 51.5278 31.0517C47.4187 31.0517 43.6452 29.3746 40.9622 26.6077C38.3208 23.8818 36.6016 20.1506 36.6016 16C36.6016 11.8493 38.3208 8.11871 40.9622 5.39217Z" fill="white"/>
<path d="M105.026 11.8493C103.851 7.11211 99.3236 5.39217 95.5924 5.39217C89.8486 5.39217 85.4047 9.879 85.4047 16.0429C85.4047 22.2471 89.8486 26.8178 95.5924 26.8178C99.1975 26.8178 103.054 25.1407 104.816 20.8639H93.9564V16.6294H109.764C109.554 19.103 109.344 20.7378 108.967 21.7015V21.6605C106.955 27.2782 100.917 30.8845 95.5924 30.8845C87.375 30.8845 81.1701 24.6784 81.1701 16.0429C81.1701 7.36312 87.5011 1.15827 95.5924 1.15827C101.21 1.15827 108.003 4.05131 109.554 11.8493H105.026Z" fill="white"/>
<path d="M131.02 18.0542H138.315L134.71 7.69865L131.02 18.0542ZM139.951 22.0377H129.427C128.294 24.7207 126.827 28.2419 125.906 30.6745H121.336L133.117 0.948242H136.22L148 30.6745H143.472L139.951 22.0377Z" fill="white"/>
</g>
<defs>
<clipPath id="clip0_17156_757">
<rect width="148" height="32" fill="white"/>
</clipPath>
</defs>
</svg>
